<?xml version="1.0" encoding="utf-8"?>
<!-- Generator: Adobe Illustrator 28.4.0, SVG Export Plug-In . SVG Version: 6.00 Build 0)  -->
<svg version="1.1" baseProfile="tiny" id="Ebene_1" xmlns="http://www.w3.org/2000/svg" xmlns:xlink="http://www.w3.org/1999/xlink"
	 x="0px" y="0px" viewBox="0 0 1254 1254" overflow="visible" xml:space="preserve">
<path fill="#EFF1E2" d="M62.8,632.5c-0.9-66.1,9.6-125.4,28.1-183.5c21-66.1,53.2-126.3,95.7-181c33.6-43.2,73.2-80.5,118.2-111.7
	c58.3-40.5,122.1-69.1,191.1-85.9c28.2-6.9,56.9-11.4,85.9-14c23.5-2.1,47.1-2.7,70.5-1.8c38.3,1.6,76.1,7.2,113.3,16.7
	c37.7,9.6,74,22.9,108.8,40c39.3,19.2,75.7,43.1,109.6,70.8c20.4,16.6,39.4,34.7,57.1,54.1c28,30.7,52.1,64.3,72.8,100.3
	c19.5,33.9,35,69.5,47.1,106.6c10.8,33,18.9,66.7,23.8,101.1c4.6,32.6,7.3,65.4,6.3,98.3c-1.5,50.3-8.9,99.9-22.7,148.4
	c-10.5,37.1-25,72.6-43.1,106.6c-18.2,34.3-39.8,66.3-64.6,96.2c-12.4,14.9-24.9,29.6-38.9,43.1c-37.3,35.9-78.1,67.1-123.6,92.2
	c-45,24.9-92.3,43.4-142.3,55.2c-26.2,6.2-52.7,10.1-79.5,13c-16.4,1.8-32.9,2.6-49.2,2.6c-30.1,0-60.2-2.5-90-7.8
	c-37.9-6.7-74.7-16.9-110.5-30.9c-41.7-16.2-80.6-37.8-117.2-63.4c-32.5-22.8-62.9-48.2-90.2-77.1c-33-35-61.5-73.3-85.2-115.3
	c-26.6-47.2-45.6-97.2-57.5-149.9c-5.6-25-9.7-50.2-11.9-75.8C63.3,662.2,62.6,644.9,62.8,632.5z"/>
<g>
	<path fill="#134C29" d="M638.1,478.8c69.1-1.5,152.2-4.4,233.8-22.9c16.4-3.7,32.6-8.3,47.5-16.5c2.1-1.1,3.7-3.2,5.5-4.8
		c-2-1.4-3.8-3.3-6-4.2c-26.3-10.6-54.2-13.3-81.9-16.8c-53.1-6.7-106.4-8.7-159.9-9.9c-8.2-0.2-11.9-4.6-11.9-11.8
		c0-7.5,3.5-13.6,12.1-13.4c79.1,1.4,158.1,4.3,235.6,22.7c10.2,2.4,20,5.9,28.9,11.7c8.8,5.8,12.2,13.7,11.1,24.4
		c-5.4,54.5-10.4,109-15.5,163.5c-5.2,55.2-10.3,110.3-15.6,165.5c-6.2,65.1-12.3,130.2-18.7,195.3c-2.2,22.1-3.5,44.3-7.7,66.3
		c-9,48.2-37.7,78.7-83.2,94.7c-47.3,16.7-96.6,21.2-146.2,22.9c-64.7,2.2-129.1,0.1-192.5-14.8c-23.1-5.4-45.3-13.1-66.1-24.9
		c-38.8-22.1-60.2-55.6-64.6-99.8c-9-90.6-17.7-181.3-26.5-271.9c-9.3-97-18.5-194-27.8-291c-2-20.8,1.8-27.5,21.4-35.5
		c23.3-9.5,47.9-13.7,72.7-17.3c62.7-9,125.8-11.5,189-12.1c8.7-0.1,12.4,4.8,12.6,12.7c0.2,7.9-4.1,12.4-12.1,12.5
		c-42.5,0.6-85,2.2-127.3,5.9c-37.5,3.3-75.2,6.6-111.6,17c-6.1,1.7-16.2,3.5-16.1,7.9c0.1,5.5,9.4,7.9,15.4,10.2
		c32.9,12.8,67.4,18.4,102.1,23.2C497.6,476.4,560.7,478.8,638.1,478.8z"/>
	<path fill="#6FA633" d="M624.3,371.4c6.6-39.6,8.4-77.1,19.9-113.1c23.7-74,86.1-123.9,163.6-130.1c13.9-1.1,27.6-1.1,41.5-0.3
		c8.5,0.5,11.1,4.2,10.6,12c-2.5,45.2-20.8,83.3-52.8,114.8c-34.3,33.8-77.3,48-123.9,53.5c-7,0.8-14,1.3-21,1.9
		c-5.8,0.5-8.8,3.8-10.1,9.3c-8,33.4-12.6,67.3-16,101.4c-0.4,4.3-0.9,8.6-1.3,12.9c-0.5,6.9-4.9,9.5-11,9.5c-6.4,0-9.1-4-9.5-10.1
		c-1.8-26.1-4.7-52-10.9-77.4c-4.5-18.7-4.2-18.8-23.3-22.2c-62.1-10.9-107.7-43.7-134.4-101.4c-5.7-12.2-9.7-25-11.9-38.3
		c-1.3-7.9,1.7-12,10.1-13.4c57.2-9.1,112.9,16.8,143.5,66.2c18.7,30.3,26.5,63.9,32.1,98.3C620.9,352.6,622.4,360.5,624.3,371.4z"
		/>
	<path fill="#EFF0E2" d="M316.7,464.9c78.5,30.6,160.6,35.8,242.9,38.5c81.6,2.8,163.2,1.2,244.4-9.4c41.3-5.4,82.1-12.6,121.5-29.1
		c-3.1,32.9-6,65-9,97.1c-6.6,71.3-12.8,142.6-20,213.8c-8.2,80.2-14.1,160.7-24.1,240.7c-6,47.9-36.1,73.3-80,85.6
		c-59.3,16.6-120.2,18.3-181.2,17.5c-51.9-0.8-103.6-4.6-153.5-20.6c-24.5-7.8-47.5-18.4-65.2-37.9c-17.7-19.4-23.9-43.2-26.2-68.6
		c-8.8-94.5-17.9-189-26.9-283.6c-7.4-78-14.7-156.1-22-234.1C316.9,471.5,316.8,468.2,316.7,464.9z"/>
	<path fill="#77AA39" d="M564.6,748.6c-15.1-28.2-21.3-56.2-17.7-85.9c8-66.9,47-110.7,105.6-139.5c4.9-2.4,8.9-2.8,11.7,3.2
		c13.2,28.3,23.5,57.3,25.9,89c4.8,63.9-34.5,123.3-95.8,142.4c-7.3,2.3-11.8,5.8-14,13c-1.2,3.9-3.1,7.6-4.6,11.4
		c-1.7,4.3-4.1,7.2-9.2,5.1c-5.5-2.3-4-6.3-2.1-10.2c5-10.2,10-20.4,15.1-30.6c22.2-45,40.9-91.5,56.1-139.4c0.9-2.7,1.6-5.6,1-8.8
		c-11.9,24.8-23.7,49.7-35.6,74.5C589.1,697.5,577.2,722.2,564.6,748.6z"/>
	<path fill="#144D2A" d="M860.8,600.5c-0.3,40.2-7.9,78.1-32.8,111c-22.2,29.3-52,46.3-88,52c-11.3,1.8-18.2,7-22.6,16.9
		c-2.4,5.5-6.4,8-11.9,5c-5.5-3-4.6-7.6-1.7-12.2c6-9.6,7.4-20.1,4.5-30.8c-15.9-58.5,11.6-117.8,64.5-151.4
		c23.2-14.8,48.5-24.5,75.1-31.2c7.3-1.8,10.6,0.3,10.9,8.1C859,578.8,860.1,589.6,860.8,600.5z"/>
	<path fill="#D55150" d="M790.2,813.1c2.4-0.8,4.8-1.3,7-2.3c18-7.9,35.8-9.4,52,3.7c16.7,13.4,19.7,32,16.8,51.8
		c-3.4,22.5-13.7,41.6-30.1,57.5c-11.8,11.4-25.5,15.3-41.3,10.3c-6.5-2.1-12.8-2-19.3,0.1c-13,4.2-25.7,2.5-36-6.2
		c-25.6-21.6-38.7-49.5-34.5-83.1c4.1-32.5,34.2-48,65.5-36c3.2,1.2,6.4,6.5,10.8,1.9C784.2,811.6,787.2,812.3,790.2,813.1z"/>
	<path fill="#4C8A35" d="M417.8,848.5c-15.6,8.8-28.6,8.3-39.8-1.3c-11-9.4-13.2-22.6-6.1-39.7c1.1-2.7,0-4.3-0.7-6.3
		c-6.2-17.1,0.6-33.5,17.2-40.5c3.5-1.5,4.5-3.4,5.2-6.9c5.7-29.2,38.2-42.2,62.3-24.7c2.7,1.9,4.1,1.3,6.5,0.2
		c15-7,31.2-1.7,38.9,13c1.8,3.4,4,4.8,7.5,5.9c15.9,4.9,25,19.3,23.3,36.4c-1.5,15-13,26.6-28.3,28.6c-2.6,1.8-5.6,2.4-8.3,1.5
		c-5.7-1.9-10-0.2-13.7,4.1c-3.3,2.6-6.9,4.6-11.3,3.9c-1.9-0.5-3.9-1-5.8-1.5c-8.9-2.6-13.1-0.6-16.9,7.9c-3,5.4-7.6,8-13.7,7.5
		c-3.7-1.1-6.2,0.3-8.2,3.7C423.8,843.5,422.3,847.5,417.8,848.5z"/>
	<path fill="#4C8A35" d="M376.2,575.1c-1-18-0.5-18.7,17-16.1c43.6,6.5,81,23.8,104.9,63.1c11.5,19,16.1,40,15.9,61.9
		c-0.1,8.5,2,15.6,7.9,21.6c3.1,3.2,4,6.8,0.2,10c-3.7,3.1-7.3,2.1-10-1.5c-4.6-6-9.9-9.3-18.1-10.2c-63-6.3-105.7-47.3-115.4-110.1
		C377.5,587.8,376.9,581.4,376.2,575.1z"/>
	<path fill="#DBB682" d="M594.7,893.5c-18.9-1.7-41-9.1-52.7-34.1c-4.8-10.3-4.4-20.7,3.2-29.4c7.5-8.5,17.5-8.1,27.6-4.8
		c23.6,7.8,47-9.1,47-33.8c-0.1-17.2,5.3-26.4,17.4-30.4c11.6-3.7,24.9,2,33.9,14.6c20.6,28.9,11.9,76.7-17.9,99.7
		C637.8,887.4,620.6,893.8,594.7,893.5z"/>
	<path fill="#E8642F" d="M797.2,1038.1c3.8,10.7,6.4,21.7,7,33.1c0.7,13.1-5.3,18-17.6,13.6c-24.6-8.7-46.3-22.6-65.8-39.9
		c-0.7-4.2,2.8-5.8,5.1-8.1c2.6-2.8,6-4.7,8.5-7.3c-4.3,2.7-8.7,5.7-13.1,8.7c-1.7,1.2-3.5,3.2-6,1.3c-14.1-15.1-14.4-27.6-1-44.9
		c4.6-8.8,12.5-13.4,21.4-16.7c17.5-8.5,30.4-5,40.9,11.2c0.3,4-3.3,5-5.5,6.9c-2.9,2.5-5.7,5.1-8.1,6.9c5.3-2,9.3-8.4,16.5-8.5
		c7.4,11.9,12.2,24.9,15.9,38.4c-3.2,6.2-10.4,7.5-14,11.7C786.2,1042.8,790.2,1036.9,797.2,1038.1z"/>
	<path fill="#7D418B" d="M688.2,1054.5c-0.3,24.6-19.1,43-43.5,42.7c-22.2-0.3-41.2-20.1-41-42.7c0.2-24.5,19.5-43.9,43.1-43.4
		C670.2,1011.6,688.6,1030.8,688.2,1054.5z"/>
	<path fill="#7DAF3E" d="M446.6,828.1c1.5-7.7,9.2-12.2,16.3-9.6c2.3,0.8,4.5,1.6,6.8,2.4c1.8,7.2,4.4,14,7.5,21.8
		c0.7-9.3,2.9-17.3,3.7-25.5c6-10.5,15.4-2.4,23-4.1c-6.4,16.8-5.4,33.9-1.6,50.9c2,9.3,5.3,18.3,8.4,27.3
		c2.5,7.3,0.5,12.9-6.4,15.6c-11.2,4.4-22.5,8.4-34,12c-6,1.9-9.9-1.4-11.6-7.4c-7.3-25-19.6-46.9-40.7-63c2.6-3.8,5.6-7.5,7.8-11.6
		c2-3.9,4.4-3.7,7.6-1.9c7.4,4.5,12.9,11.3,20.1,16.6C451.6,843.5,447.5,836.2,446.6,828.1z"/>
	<path fill="#7D428A" d="M486.1,954.4c0,13-10.2,23.5-23.1,23.7c-12.7,0.2-23.4-10.4-23.6-23.2c-0.1-13.2,10.4-23.5,23.8-23.4
		C475.9,931.5,486.1,941.7,486.1,954.4z"/>
	<path fill="#7E438B" d="M446.2,986.9c-0.2,12.8-10.7,22.6-23.6,22.2c-13-0.4-22.7-10.9-22.6-24.1c0.2-12.8,11-23.1,24-22.6
		C436.6,962.7,446.5,973.7,446.2,986.9z"/>
	<path fill="#7B418A" d="M493.9,1065.7c-13.2-0.1-22.8-10-22.6-23.7c0.1-12.9,9.9-22.2,23.3-22.3c13.1,0,22.8,10.1,22.7,23.6
		C517.2,1055.9,506.9,1065.8,493.9,1065.7z"/>
	<path fill="#7D438B" d="M511.4,978.4c-12.3-0.1-22.1-10.3-22.2-22.8c0-13,10.2-23.5,23.1-23.6c12.5-0.1,22.7,10.4,22.7,23
		C535.1,968.9,525.3,978.5,511.4,978.4z"/>
	<path fill="#549036" d="M564.9,976.8c0.1-13.1,10.1-23,22.9-22.7c12.4,0.3,22.3,10.5,22.2,23c-0.2,12.8-9.8,22.5-22.4,22.6
		C574.6,999.8,564.8,990,564.9,976.8z"/>
	<path fill="#549236" d="M660.6,940.7c-0.2,12.9-9.8,22.5-22.4,22.3c-12.4-0.2-22.3-10.4-22.2-22.8c0.1-12.4,10.2-22.4,22.7-22.3
		C650.9,917.9,660.7,928.1,660.6,940.7z"/>
	<path fill="#7D428A" d="M497.3,995.1c-0.7,11.2-5.2,18.7-14.7,22.2c-9.3,3.5-18.1,2.1-25-5.4c-7.1-7.6-9.2-16.5-5.1-26.4
		c1.3-3,2.9-4.5,6.7-3.7c5.6,1.2,11.3,0.2,16.5-2.7c9.1-5,15.4-2.9,19.5,7.2C496.4,989.4,496.8,992.9,497.3,995.1z"/>
	<path fill="#569436" d="M572.3,1066.6c-0.1,12.3-10,22.2-22.1,22.1c-12.2-0.1-22.1-10.1-22.1-22.2c0-12.2,9.9-22,22.1-22
		C562.4,1044.5,572.4,1054.4,572.3,1066.6z"/>
	<path fill="#417F32" d="M735.7,977.9c-7.1,5.6-14.3,11.1-21.4,16.7c-5.4-1.6-10.8-3.2-16.3-4.7c-4.1-1.1-8.6-2.2-7.4-7.7
		c1.4-6,6.4-4.4,10.6-3.8c1.5,0.2,2.9,0.8,7.1,2.1c-6.7-5.6-11.2-9.5-15.8-13.3c-3.5-2.9-4.8-6.1-1.7-9.9c3.2-3.9,6.4-2,9.4,0.5
		c4.3,3.6,8.7,7.2,14,11.7c-1.8-5.5-3.3-9.9-4.7-14.3c-1.1-3.5-0.1-6.4,3.3-7.9c3.9-1.6,5.2,1.6,6.4,4.3c1.9,4.5,3.6,9.1,5.4,13.8
		c0.7-0.6,1.2-0.8,1.3-1c0.7-4.9-1.2-12.7,5.9-12.3c7.2,0.3,3.4,7.9,3.9,12.3C736,968.8,735.7,973.3,735.7,977.9z"/>
	<path fill="#7D438B" d="M428.3,1027.9c0-7.2,2.2-13.4,8.3-17.7c5.6-3.9,11-7.5,15.5,2c2.4,5,7.4,8.2,12.8,9.4c4.4,1,5.2,3.1,5.2,7
		c-0.2,11.3-9.6,20.7-21,20.7C437.2,1049.1,428.4,1040.1,428.3,1027.9z"/>
	<path fill="#508E37" d="M836.8,766.4c3.8,1.1,9.9-1.6,12.1,2.7c2.3,4.5-2.5,8.7-5.2,12.4c-10.5,14.7-27.6,20.5-44.3,15.6
		c-4.4-1.3-4.7-2.8-2.9-6.6C804.5,773.7,818,766.3,836.8,766.4z"/>
	<path fill="#7B4088" d="M512.9,1021.1c-4.8-0.5-9.4-2.5-13.6-5.1c-2.6-1.6-3.4-3.8-1.5-6.9c4-6.4,4.6-13.3,1.8-20.3
		c-1.3-3.3,0.5-5.7,2.5-5.9c7.7-0.7,16.2-3.7,23.1,1.3c7.9,5.7,10.3,14.3,6.8,23.7C528.9,1016.6,522.2,1020.6,512.9,1021.1z"/>
	<path fill="#754C2B" d="M442,937.6c-3.8,0.3-0.9,9.2-8.1,5.6c-2.7-1.4-3,0.8-3.4,2.6c-0.8,3.1-1.6,6.1-2,9.3c-0.5,4-3.1,3.8-6,3.6
		c-4-0.3-2.4-3-2.1-5c0.3-1.8,0.4-3.8,1.4-5.2c7.7-11.8,0.4-17.4-8.9-22.4c-2.4-1.3-4.8-2.6-7-4.1c-2.8-1.9-2.3-4.8-1.2-7.4
		c1-2.5,3.2-4.4,5.9-3.2c12.2,5.5,21.3,15.1,30.6,24.5C441.4,936.2,441.5,936.6,442,937.6z"/>
	<path fill="#85522F" d="M790.2,813.1c-3.7,1.7-7.2,2.9-9.1-2.4c-0.5-9.3-2-18.4-5.1-27.2c-1.7-4.9-0.9-8.9,4.5-9.9
		c5.7-1.1,8.1,2.3,8.7,7.7C790.4,791.9,790.9,802.5,790.2,813.1z"/>
	<path fill="#F7A77D" d="M715.3,1039.5c8.6-4,15.3-11.5,24.5-14.3c-6.3,6.6-12.6,13.1-19,19.7C719,1043.1,717.1,1041.3,715.3,1039.5
		z"/>
	<path fill="#F39E6E" d="M779.5,994.2c-7.3,4.7-14.5,9.3-21.8,14c4.6-8.3,12.3-13.2,18.9-19.2C777.6,990.8,778.6,992.5,779.5,994.2z
		"/>
	<path fill="#F29C6D" d="M797.2,1038.1c-7.3,3.7-14.5,7.4-21.8,11c5.6-7.1,12.6-12.2,20.1-16.5
		C796,1034.4,796.6,1036.2,797.2,1038.1z"/>
	<path fill="#86A17F" d="M813.3,620.4c-11.9,17.6-23.7,35.1-35.6,52.7c-2,3-4.2,5.9-6.1,9.1c-1.9,3.3-3.5,6.7-5.3,10.1
		c4.2,1.7,8.4,0.3,12.5-0.6c9.1-2,17.5-5.7,25.6-10.2c-9.7,9.6-22.1,12.8-35.1,14c-4.9,0.5-7.8,2.1-10.3,6.2
		c-8.7,14.4-17.6,28.6-26.5,42.9c-1.9,3-4.2,5.7-7.1,8C747.6,703.9,778,660.5,813.3,620.4z"/>
	<path fill="#EAEFDE" d="M446.6,828.1c5.3,8.6,7,18.4,10.1,27.7c-0.8,0.7-1.6,1.4-2.4,2.2c-7-7.7-14.1-15.3-21.1-23
		C438.9,835.2,443.4,832.9,446.6,828.1z"/>
	<path fill="#E6EEDB" d="M480.8,817.2c1.2,0.1,2.1,0.3,1.8,2c-1.6,9.5-3,19-5,31.4c-2.9-11.8-9.9-19.4-8-29.7
		C474,821.5,477.6,820,480.8,817.2z"/>
</g>
</svg>
